# Blender3D v249 OBJ File: untitled.blend
# www.blender3d.org
mtllib cube.mtl






#Player vertices
v 0 2 0		
v 0.8 -0.2 0
v 2 1 0
v 1 -2 0
v 0 -1 0
v -1 -2 0
v -2 1 0
v -0.8 -0.2 0

#Player textures
vt 0.06250 0.01074
vt 0.07813 0.05078
vt 0.10938 0.04053
vt 0.07764 0.09912
vt 0.06250 0.07715	
vt 0.04736 0.09912
vt 0.01563 0.04053
vt 0.04688 0.05078


#normal
vn 0 0 1


usemtl Material_ray.png
s off




#Player triangles
f 1/1/1 8/8/1 5/5/1
f 1/1/1 5/5/1 2/2/1
f 8/8/1 6/6/1 5/5/1
f 2/2/1 5/5/1 4/4/1
f 8/8/1 7/7/1 6/6/1
f 3/3/1 2/2/1 4/4/1
